<svg version="1.1" xmlns="http://www.w3.org/2000/svg" viewBox="0 0 2671.332311512092 1697.3378521569857" width="5342.664623024184" height="3394.6757043139714">
  <!-- svg-source:excalidraw -->
  
  <defs>
    <style class="style-fonts">
      @font-face {
        font-family: "Virgil";
        src: url("https://excalidraw.com/Virgil.woff2");
      }
      @font-face {
        font-family: "Cascadia";
        src: url("https://excalidraw.com/Cascadia.woff2");
      }
      @font-face {
        font-family: "Assistant";
        src: url("https://excalidraw.com/Assistant-Regular.woff2");
      }
    </style>
    
  </defs>
  <rect x="0" y="0" width="2671.332311512092" height="1697.3378521569857" fill="#ffffff"></rect><g stroke-linecap="round" transform="translate(139.7458172175293 119.69662684164223) rotate(0 1215.9832704971645 722.5684415307553)"><path d="M32 0 C632.1 -8.27, 1233.59 -8.64, 2399.97 0 M32 0 C796.58 1.32, 1560.93 1.26, 2399.97 0 M2399.97 0 C2420.43 -1.22, 2432.11 12.38, 2431.97 32 M2399.97 0 C2423.06 -0.65, 2433.51 8.72, 2431.97 32 M2431.97 32 C2434.54 389.84, 2433.84 747.01, 2431.97 1413.14 M2431.97 32 C2426.77 512.16, 2427.29 993.36, 2431.97 1413.14 M2431.97 1413.14 C2433.53 1434, 2419.42 1445.7, 2399.97 1445.14 M2431.97 1413.14 C2430.92 1434.55, 2419.62 1446.27, 2399.97 1445.14 M2399.97 1445.14 C1698.56 1443.44, 995.93 1443.52, 32 1445.14 M2399.97 1445.14 C1704.45 1443.25, 1009.17 1442.75, 32 1445.14 M32 1445.14 C11.22 1445.04, 0.69 1435.48, 0 1413.14 M32 1445.14 C8.86 1444.33, -1.74 1436.36, 0 1413.14 M0 1413.14 C1.2 1080.19, 1.15 747.13, 0 32 M0 1413.14 C-4.15 875.75, -3.62 339.07, 0 32 M0 32 C1.69 11.25, 9.29 -1.42, 32 0 M0 32 C0.49 11.37, 11.87 1, 32 0" stroke="#1e1e1e" stroke-width="2" fill="none"></path></g><g stroke-linecap="round"><g transform="translate(1379.1032019481381 125.51623674361872) rotate(0 5.4233145460193555 723.1488476251493)"><path d="M-1.1 0.62 C0.88 241.78, 9.03 1204.78, 11.04 1445.73 M0.52 -0.09 C2.43 241.32, 8.56 1205.68, 10.19 1446.97" stroke="#1e1e1e" stroke-width="2" fill="none"></path></g></g><mask></mask><g stroke-linecap="round" transform="translate(223.20003613715835 886.6548839098086) rotate(0 552.4326606471832 47.24505608368872)"><path d="M23.62 0 C369.09 1.29, 715.24 2.29, 1081.24 0 M23.62 0 C356.55 0.23, 689.26 0.45, 1081.24 0 M1081.24 0 C1095.09 0.02, 1103.89 5.89, 1104.87 23.62 M1081.24 0 C1097.73 -0.65, 1106.62 6.97, 1104.87 23.62 M1104.87 23.62 C1104.86 32.11, 1104.21 42.44, 1104.87 70.87 M1104.87 23.62 C1105.5 41.38, 1105.06 57.66, 1104.87 70.87 M1104.87 70.87 C1104.92 86.79, 1096.97 93.07, 1081.24 94.49 M1104.87 70.87 C1106.59 87.08, 1097.45 96.62, 1081.24 94.49 M1081.24 94.49 C733.65 95.52, 384.97 95.93, 23.62 94.49 M1081.24 94.49 C770.04 96.67, 458.35 96.84, 23.62 94.49 M23.62 94.49 C6.12 92.96, -0.97 88.24, 0 70.87 M23.62 94.49 C8.17 93.47, -2.05 85.49, 0 70.87 M0 70.87 C-0.52 58.22, -0.6 42.82, 0 23.62 M0 70.87 C0.05 55.64, 0.24 41.77, 0 23.62 M0 23.62 C-1.52 8.11, 8.37 0.95, 23.62 0 M0 23.62 C0.89 6.39, 7.39 0.11, 23.62 0" stroke="#1e1e1e" stroke-width="2" fill="none"></path></g><g stroke-linecap="round"><g transform="translate(1242.922468251486 917.439623156477) rotate(0 0 23.5087684473433)"><path d="M0.03 -0.48 C0.08 7.35, 0.25 38.75, 0.25 46.62 M-0.62 0.46 C-0.62 8.38, -0.1 39.32, -0.05 47.12" stroke="#1e1e1e" stroke-width="2" fill="none"></path></g></g><mask></mask><g stroke-linecap="round"><g transform="translate(1212.1377290048167 939.4114762658646) rotate(0 37.5685256779484 -0.24609218402292754)"><path d="M-0.9 -0.16 C11.47 -0.5, 62.25 -1.35, 74.96 -1.55 M0.83 -1.29 C12.96 -1.55, 61.6 -0.7, 73.91 -0.57" stroke="#1e1e1e" stroke-width="2" fill="none"></path></g></g><mask></mask><g stroke-linecap="round"><g transform="translate(1237.4876464980525 973.7284734166615) rotate(351.05584490051353 -167.55446992878115 16.147127878495667)"><path d="M-0.67 1.19 C-29.96 -0.61, -119.94 -18.38, -175.74 -11.25 C-231.54 -4.13, -308.85 34.82, -335.49 43.93 M1.17 0.77 C-27.73 -1.37, -117.22 -20.69, -173.49 -13.26 C-229.76 -5.83, -309.44 35.73, -336.45 45.33" stroke="#1e1e1e" stroke-width="2" fill="none"></path></g><g transform="translate(1237.4876464980525 973.7284734166615) rotate(351.05584490051353 -167.55446992878115 16.147127878495667)"><path d="M-318.17 28.28 C-321.65 31.76, -328.67 37.63, -336.45 45.33 M-318.17 28.28 C-324.02 33.12, -329.14 38.76, -336.45 45.33" stroke="#1e1e1e" stroke-width="2" fill="none"></path></g><g transform="translate(1237.4876464980525 973.7284734166615) rotate(351.05584490051353 -167.55446992878115 16.147127878495667)"><path d="M-311.48 44.02 C-316.89 42.81, -325.87 44.03, -336.45 45.33 M-311.48 44.02 C-319.37 43.91, -326.58 44.62, -336.45 45.33" stroke="#1e1e1e" stroke-width="2" fill="none"></path></g></g><mask></mask><g stroke-linecap="round" transform="translate(238.97000575278526 1000.4163607135579) rotate(0 538.4357688963796 47.997262382023564)"><path d="M24 0 C369.71 2.64, 717.19 3.32, 1052.87 0 M24 0 C294.09 -3.14, 563.25 -3.02, 1052.87 0 M1052.87 0 C1069.57 -1.39, 1078.65 8.79, 1076.87 24 M1052.87 0 C1070.25 -1.52, 1074.93 8.77, 1076.87 24 M1076.87 24 C1076.5 40.99, 1075 54.09, 1076.87 72 M1076.87 24 C1076.53 38.43, 1075.86 53.6, 1076.87 72 M1076.87 72 C1075.31 86.34, 1069 97.61, 1052.87 95.99 M1076.87 72 C1078.16 90.06, 1067.63 95.65, 1052.87 95.99 M1052.87 95.99 C806.84 98.12, 560.48 98.77, 24 95.99 M1052.87 95.99 C829.11 95.43, 604.72 95.84, 24 95.99 M24 95.99 C6.34 96.7, -0.2 88.71, 0 72 M24 95.99 C5.79 96.52, -0.66 88.68, 0 72 M0 72 C-1.28 54.17, 0.17 34.88, 0 24 M0 72 C0.46 53.9, 0.56 36.61, 0 24 M0 24 C-1.81 9.1, 8.93 1.2, 24 0 M0 24 C-0.67 6.45, 7.19 1.47, 24 0" stroke="#1e1e1e" stroke-width="2" fill="none"></path></g><g stroke-linecap="round"><g transform="translate(1235.7176430266109 1052.6402932357669) rotate(0 11.95636554452085 10.837342594528764)"><path d="M1.03 0.82 C5.4 4.18, 21.47 16.9, 25.1 20.49 M0.12 0.21 C4.53 3.63, 20.61 18.05, 24.78 21.4" stroke="#1e1e1e" stroke-width="2" fill="none"></path></g></g><mask></mask><g stroke-linecap="round"><g transform="translate(1285.6610172562678 1051.4368228147387) rotate(0 -9.913336092253303 9.62081142067882)"><path d="M0.58 0.24 C-2.68 3.45, -17 16.7, -20.38 19.93 M-0.57 -0.68 C-3.97 2.12, -18.32 15.14, -21.62 18.17" stroke="#1e1e1e" stroke-width="2" fill="none"></path></g></g><mask></mask><g transform="translate(303.6396775714411 912.118085731945) rotate(0 110.66394805908203 22.5)"><text x="0" y="31.536" font-family="Virgil, Segoe UI Emoji" font-size="36px" fill="#1e1e1e" text-anchor="start" style="white-space: pre;" direction="ltr" dominant-baseline="alphabetic">Add services</text></g><g transform="translate(306.6523334974472 1024.1133563515768) rotate(0 222.96591186523438 22.5)"><text x="0" y="31.536" font-family="Virgil, Segoe UI Emoji" font-size="36px" fill="#1e1e1e" text-anchor="start" style="white-space: pre;" direction="ltr" dominant-baseline="alphabetic">Search images (e.g mysql)</text></g><g stroke-linecap="round" transform="translate(254.65490004769345 1096.76362062929) rotate(0 524.3860704513404 114.6487731243601)"><path d="M32 0 C295.02 -2.71, 557.29 -2.18, 1016.77 0 M32 0 C275.8 -1.87, 519.37 -1.2, 1016.77 0 M1016.77 0 C1039.1 -1.78, 1049.42 9.28, 1048.77 32 M1016.77 0 C1037.15 -0.36, 1047.88 8.9, 1048.77 32 M1048.77 32 C1048.81 70.83, 1049.67 106.96, 1048.77 197.3 M1048.77 32 C1049.56 74.62, 1048.87 118.17, 1048.77 197.3 M1048.77 197.3 C1049.76 219.27, 1037.23 228.62, 1016.77 229.3 M1048.77 197.3 C1049.97 220.08, 1040.27 228.79, 1016.77 229.3 M1016.77 229.3 C736.36 226.8, 456.7 226.87, 32 229.3 M1016.77 229.3 C702.86 229.57, 388.02 230.04, 32 229.3 M32 229.3 C10.34 230.56, 1.27 219.14, 0 197.3 M32 229.3 C8.61 228.28, 0.9 220.48, 0 197.3 M0 197.3 C1.9 164.32, 0.46 132.61, 0 32 M0 197.3 C0.92 134.32, 2.19 70, 0 32 M0 32 C-0.4 12.21, 10.02 1.97, 32 0 M0 32 C1.8 11.23, 8.66 0.53, 32 0" stroke="#1e1e1e" stroke-width="2" fill="none"></path></g><g transform="translate(324.87939422063846 1145.4681223487996) rotate(0 56.64598083496094 22.5)"><text x="0" y="31.536" font-family="Virgil, Segoe UI Emoji" font-size="36px" fill="#1e1e1e" text-anchor="start" style="white-space: pre;" direction="ltr" dominant-baseline="alphabetic">MySQL</text></g><g transform="translate(326.37452031979683 1236.642954904998) rotate(0 80.60396575927734 22.5)"><text x="0" y="31.536" font-family="Virgil, Segoe UI Emoji" font-size="36px" fill="#1e1e1e" text-anchor="start" style="white-space: pre;" direction="ltr" dominant-baseline="alphabetic">MySQLite</text></g><g stroke-linecap="round" transform="translate(294.8420349534217 1121.1547580938059) rotate(0 491.7154389638881 48.16441933720944)"><path d="M24.08 0 C318.01 1.31, 612.42 0.25, 959.35 0 M24.08 0 C247.71 -1.1, 471.41 -1.02, 959.35 0 M959.35 0 C973.67 -0.76, 985.2 8.24, 983.43 24.08 M959.35 0 C976.65 -2.29, 984.64 8.17, 983.43 24.08 M983.43 24.08 C982.28 39.24, 983.34 52.62, 983.43 72.25 M983.43 24.08 C983.81 44.1, 983.31 61.92, 983.43 72.25 M983.43 72.25 C984.01 89.91, 974.54 97.84, 959.35 96.33 M983.43 72.25 C984.61 88.98, 976.99 96.87, 959.35 96.33 M959.35 96.33 C729.6 93.14, 499.93 93.28, 24.08 96.33 M959.35 96.33 C665.41 94.24, 372.46 94.98, 24.08 96.33 M24.08 96.33 C7.96 95.74, 1.8 88.84, 0 72.25 M24.08 96.33 C8.91 96.03, 1.93 87.59, 0 72.25 M0 72.25 C-1.04 59.87, 0.7 49.85, 0 24.08 M0 72.25 C0.72 53.86, -0.4 35.91, 0 24.08 M0 24.08 C0.76 8.84, 8.8 -0.19, 24.08 0 M0 24.08 C-1.08 9.37, 9.79 -1.53, 24.08 0" stroke="#1e1e1e" stroke-width="2" fill="none"></path></g><g stroke-linecap="round" transform="translate(10 10) rotate(0 1325.666155756046 838.6689260784929)"><path d="M32 0 C1014.76 -0.82, 1997.86 -0.44, 2619.33 0 M32 0 C943.36 -2.19, 1855.01 -2.12, 2619.33 0 M2619.33 0 C2641.24 -0.1, 2649.72 9.18, 2651.33 32 M2619.33 0 C2640.24 -0.95, 2649.23 12.92, 2651.33 32 M2651.33 32 C2651.42 521.96, 2651.07 1010.47, 2651.33 1645.34 M2651.33 32 C2655.62 507.55, 2656.06 983.17, 2651.33 1645.34 M2651.33 1645.34 C2653.13 1667.11, 2641.93 1679.18, 2619.33 1677.34 M2651.33 1645.34 C2649.43 1665.33, 2640.06 1676.61, 2619.33 1677.34 M2619.33 1677.34 C1662.66 1685.28, 705.81 1685.01, 32 1677.34 M2619.33 1677.34 C1875.71 1675.72, 1131.56 1676.12, 32 1677.34 M32 1677.34 C9.84 1676.63, 1.76 1667.84, 0 1645.34 M32 1677.34 C9.71 1677.31, 2.04 1664.56, 0 1645.34 M0 1645.34 C2.37 1131.11, 3.23 616.12, 0 32 M0 1645.34 C4.79 1060.33, 4.86 474.76, 0 32 M0 32 C-0.13 11.42, 12.55 -1.11, 32 0 M0 32 C0.1 10.62, 10.85 -0.52, 32 0" stroke="#1e1e1e" stroke-width="2" fill="none"></path></g><g stroke-linecap="round" transform="translate(65.64203766742321 19.769706613698872) rotate(0 201.10391113926607 40.76102759357741)"><path d="M20.38 0 C156.41 -0.07, 292.14 -1.68, 381.83 0 M20.38 0 C120.48 -1.98, 221.06 -1.16, 381.83 0 M381.83 0 C394.01 0.33, 401.01 6.49, 402.21 20.38 M381.83 0 C394.55 0.24, 401.36 5.51, 402.21 20.38 M402.21 20.38 C404.06 33.59, 404.15 44.87, 402.21 61.14 M402.21 20.38 C402.04 30.09, 402.8 41.06, 402.21 61.14 M402.21 61.14 C402.59 73.33, 397.2 80.53, 381.83 81.52 M402.21 61.14 C400.4 74.06, 395.39 80.33, 381.83 81.52 M381.83 81.52 C279.23 83.31, 179.81 80.94, 20.38 81.52 M381.83 81.52 C296.59 80.59, 211.52 81.12, 20.38 81.52 M20.38 81.52 C6.03 80.53, 0.59 74.98, 0 61.14 M20.38 81.52 C5.03 82.55, 0.24 75.65, 0 61.14 M0 61.14 C-0.13 52.62, -0.64 42.43, 0 20.38 M0 61.14 C-0.01 53.25, -0.98 43.6, 0 20.38 M0 20.38 C-0.87 5.02, 8.55 -1.56, 20.38 0 M0 20.38 C1.84 5.47, 5.7 -1.46, 20.38 0" stroke="#1e1e1e" stroke-width="2" fill="none"></path></g><g stroke-linecap="round"><g transform="translate(396.7097194714752 53.10117811607415) rotate(0 11.95636554452085 10.837342594528764)"><path d="M-0.25 -0.37 C3.62 3.25, 19.58 18.44, 23.41 22.18 M1.82 -1.61 C5.47 1.61, 18.34 16.73, 22.2 20.32" stroke="#1e1e1e" stroke-width="2" fill="none"></path></g></g><mask></mask><g stroke-linecap="round"><g transform="translate(446.6530937011321 51.89770769504503) rotate(0 -9.913336092253303 9.62081142067882)"><path d="M-0.5 0.5 C-3.96 3.84, -17.85 16.66, -21.01 19.64 M1.44 -0.28 C-1.65 2.72, -15.34 14.48, -18.92 17.73" stroke="#1e1e1e" stroke-width="2" fill="none"></path></g></g><mask></mask><g transform="translate(517.8306437809379 39.384603225528735) rotate(0 54.19798278808594 22.5)"><text x="0" y="31.536" font-family="Virgil, Segoe UI Emoji" font-size="36px" fill="#1e1e1e" text-anchor="start" style="white-space: pre;" direction="ltr" dominant-baseline="alphabetic">Editor</text></g><g stroke-linecap="round" transform="translate(253.57409822321097 629.4921360379485) rotate(0 519.411951621018 45.440997428395804)"><path d="M22.72 0 C356.12 1.06, 689.51 -0.05, 1016.1 0 M22.72 0 C224.25 -0.11, 424.99 -0.19, 1016.1 0 M1016.1 0 C1030.34 1.56, 1038.6 8.18, 1038.82 22.72 M1016.1 0 C1029.21 -0.5, 1038.06 8.35, 1038.82 22.72 M1038.82 22.72 C1038.02 34.8, 1040.43 44.29, 1038.82 68.16 M1038.82 22.72 C1038.53 37.34, 1039.04 52.79, 1038.82 68.16 M1038.82 68.16 C1040.11 82.51, 1031.66 90.08, 1016.1 90.88 M1038.82 68.16 C1040.88 85.53, 1031.47 88.95, 1016.1 90.88 M1016.1 90.88 C648.45 94.6, 281.6 94.93, 22.72 90.88 M1016.1 90.88 C794.79 90.34, 573.75 90.72, 22.72 90.88 M22.72 90.88 C9.17 91.12, -0.83 83.69, 0 68.16 M22.72 90.88 C9.03 89.12, -0.96 85, 0 68.16 M0 68.16 C0.3 58.22, -0.13 44.76, 0 22.72 M0 68.16 C-1.15 52.88, 0.59 40.3, 0 22.72 M0 22.72 C-0.24 5.84, 7.45 -0.3, 22.72 0 M0 22.72 C1.68 7.35, 6.32 1.15, 22.72 0" stroke="#1e1e1e" stroke-width="2" fill="none"></path></g><g transform="translate(298.1632117415829 652.9351185745727) rotate(0 92.46595764160156 22.5)"><text x="0" y="31.536" font-family="Virgil, Segoe UI Emoji" font-size="36px" fill="#1e1e1e" text-anchor="start" style="white-space: pre;" direction="ltr" dominant-baseline="alphabetic">phpmyadmin</text></g><g stroke-linecap="round" transform="translate(248.21477792849691 188.94953780831156) rotate(0 519.411951621018 45.440997428395576)"><path d="M22.72 0 C366.83 3.14, 711.01 2.28, 1016.1 0 M22.72 0 C236 -1.76, 449.59 -1.87, 1016.1 0 M1016.1 0 C1030.23 1.29, 1039.21 8.46, 1038.82 22.72 M1016.1 0 C1032.34 1.52, 1040.47 6.32, 1038.82 22.72 M1038.82 22.72 C1040.1 32.13, 1039.1 44.31, 1038.82 68.16 M1038.82 22.72 C1038.62 35.51, 1039.73 49.11, 1038.82 68.16 M1038.82 68.16 C1037.21 83.85, 1031.11 91.06, 1016.1 90.88 M1038.82 68.16 C1039.57 81.71, 1030.46 89.49, 1016.1 90.88 M1016.1 90.88 C693.31 93.79, 372.02 94.01, 22.72 90.88 M1016.1 90.88 C704.81 92.16, 393.3 91.72, 22.72 90.88 M22.72 90.88 C6.27 91.29, 0.03 84.9, 0 68.16 M22.72 90.88 C9.41 92.67, -0.96 83.9, 0 68.16 M0 68.16 C1.61 51.27, 0.3 38.36, 0 22.72 M0 68.16 C0.05 58.59, 0.34 47.6, 0 22.72 M0 22.72 C0.85 6.37, 7.51 1.84, 22.72 0 M0 22.72 C-2.21 5.96, 7.09 1.32, 22.72 0" stroke="#1e1e1e" stroke-width="2" fill="none"></path></g><g transform="translate(293.6449920162604 214.538405130947) rotate(0 56.64598083496094 22.499999999999773)"><text x="0" y="31.536" font-family="Virgil, Segoe UI Emoji" font-size="36px" fill="#1e1e1e" text-anchor="start" style="white-space: pre;" direction="ltr" dominant-baseline="alphabetic">MySQL</text></g><g stroke-linecap="round" transform="translate(272.08909409044736 279.77761596193886) rotate(0 494.8960266913891 153.10726198079692)"><path d="M32 0 C328.14 2.32, 624.19 2.04, 957.79 0 M32 0 C249.46 -1.66, 467.19 -1.68, 957.79 0 M957.79 0 C980.35 1.97, 988.22 11.53, 989.79 32 M957.79 0 C980.97 0.04, 990.64 9.09, 989.79 32 M989.79 32 C987.25 87.83, 986.52 142.37, 989.79 274.21 M989.79 32 C988.72 88.59, 987.42 144.46, 989.79 274.21 M989.79 274.21 C989.45 293.78, 978.62 306.98, 957.79 306.21 M989.79 274.21 C988.68 293.99, 978.77 303.95, 957.79 306.21 M957.79 306.21 C596.89 304.69, 234.92 303.67, 32 306.21 M957.79 306.21 C604.07 305.4, 250.92 305.37, 32 306.21 M32 306.21 C12.6 308.01, -1.11 293.89, 0 274.21 M32 306.21 C10.58 305.59, 1.45 296.64, 0 274.21 M0 274.21 C-1.56 198.87, 0.21 125.26, 0 32 M0 274.21 C1.06 179.03, 1.58 84.28, 0 32 M0 32 C1.75 9.69, 11.7 0.15, 32 0 M0 32 C0.62 8.52, 9.13 1.18, 32 0" stroke="#1e1e1e" stroke-width="2" fill="none"></path></g><g transform="translate(1464.694218102859 289.79408458906255) rotate(0 516.796875 369.5999999999999)"><text x="0" y="27.0375" font-family="Cascadia, Segoe UI Emoji" font-size="28px" fill="#1e1e1e" text-anchor="start" style="white-space: pre;" direction="ltr" dominant-baseline="alphabetic">version: '3.8'</text><text x="0" y="60.6375" font-family="Cascadia, Segoe UI Emoji" font-size="28px" fill="#1e1e1e" text-anchor="start" style="white-space: pre;" direction="ltr" dominant-baseline="alphabetic">services:</text><text x="0" y="94.23750000000001" font-family="Cascadia, Segoe UI Emoji" font-size="28px" fill="#1e1e1e" text-anchor="start" style="white-space: pre;" direction="ltr" dominant-baseline="alphabetic">  db:</text><text x="0" y="127.8375" font-family="Cascadia, Segoe UI Emoji" font-size="28px" fill="#1e1e1e" text-anchor="start" style="white-space: pre;" direction="ltr" dominant-baseline="alphabetic">    image: mysql</text><text x="0" y="161.4375" font-family="Cascadia, Segoe UI Emoji" font-size="28px" fill="#1e1e1e" text-anchor="start" style="white-space: pre;" direction="ltr" dominant-baseline="alphabetic">    restart: always</text><text x="0" y="195.0375" font-family="Cascadia, Segoe UI Emoji" font-size="28px" fill="#1e1e1e" text-anchor="start" style="white-space: pre;" direction="ltr" dominant-baseline="alphabetic">    ports:</text><text x="0" y="228.63750000000002" font-family="Cascadia, Segoe UI Emoji" font-size="28px" fill="#1e1e1e" text-anchor="start" style="white-space: pre;" direction="ltr" dominant-baseline="alphabetic">      - 3306:3306</text><text x="0" y="262.2375" font-family="Cascadia, Segoe UI Emoji" font-size="28px" fill="#1e1e1e" text-anchor="start" style="white-space: pre;" direction="ltr" dominant-baseline="alphabetic">    environment:</text><text x="0" y="295.83750000000003" font-family="Cascadia, Segoe UI Emoji" font-size="28px" fill="#1e1e1e" text-anchor="start" style="white-space: pre;" direction="ltr" dominant-baseline="alphabetic">      MYSQL_ROOT_PASSWORD: toor</text><text x="0" y="329.43750000000006" font-family="Cascadia, Segoe UI Emoji" font-size="28px" fill="#1e1e1e" text-anchor="start" style="white-space: pre;" direction="ltr" dominant-baseline="alphabetic">      TZ: Europe/Paris</text><text x="0" y="363.0375" font-family="Cascadia, Segoe UI Emoji" font-size="28px" fill="#1e1e1e" text-anchor="start" style="white-space: pre;" direction="ltr" dominant-baseline="alphabetic">    volumes:</text><text x="0" y="396.63750000000005" font-family="Cascadia, Segoe UI Emoji" font-size="28px" fill="#1e1e1e" text-anchor="start" style="white-space: pre;" direction="ltr" dominant-baseline="alphabetic">      - db:/var/lib/mysql</text><text x="0" y="430.23750000000007" font-family="Cascadia, Segoe UI Emoji" font-size="28px" fill="#1e1e1e" text-anchor="start" style="white-space: pre;" direction="ltr" dominant-baseline="alphabetic">      - ./scripts/init.sql:/docker-entrypoint-initdb.d/init.sql</text><text x="0" y="463.83750000000003" font-family="Cascadia, Segoe UI Emoji" font-size="28px" fill="#1e1e1e" text-anchor="start" style="white-space: pre;" direction="ltr" dominant-baseline="alphabetic">  phpmyadmin:</text><text x="0" y="497.43750000000006" font-family="Cascadia, Segoe UI Emoji" font-size="28px" fill="#1e1e1e" text-anchor="start" style="white-space: pre;" direction="ltr" dominant-baseline="alphabetic">    image: phpmyadmin</text><text x="0" y="531.0375" font-family="Cascadia, Segoe UI Emoji" font-size="28px" fill="#1e1e1e" text-anchor="start" style="white-space: pre;" direction="ltr" dominant-baseline="alphabetic">    ports:</text><text x="0" y="564.6375" font-family="Cascadia, Segoe UI Emoji" font-size="28px" fill="#1e1e1e" text-anchor="start" style="white-space: pre;" direction="ltr" dominant-baseline="alphabetic">      - 8080:80</text><text x="0" y="598.2375000000001" font-family="Cascadia, Segoe UI Emoji" font-size="28px" fill="#1e1e1e" text-anchor="start" style="white-space: pre;" direction="ltr" dominant-baseline="alphabetic">    depends_on:</text><text x="0" y="631.8375000000001" font-family="Cascadia, Segoe UI Emoji" font-size="28px" fill="#1e1e1e" text-anchor="start" style="white-space: pre;" direction="ltr" dominant-baseline="alphabetic">      - db</text><text x="0" y="665.4375" font-family="Cascadia, Segoe UI Emoji" font-size="28px" fill="#1e1e1e" text-anchor="start" style="white-space: pre;" direction="ltr" dominant-baseline="alphabetic"></text><text x="0" y="699.0375" font-family="Cascadia, Segoe UI Emoji" font-size="28px" fill="#1e1e1e" text-anchor="start" style="white-space: pre;" direction="ltr" dominant-baseline="alphabetic">volumes:</text><text x="0" y="732.6375" font-family="Cascadia, Segoe UI Emoji" font-size="28px" fill="#1e1e1e" text-anchor="start" style="white-space: pre;" direction="ltr" dominant-baseline="alphabetic">  db:</text></g><g transform="translate(337.9106053156356 329.55351632488873) rotate(0 59.317970275878906 17.5)"><text x="0" y="24.528" font-family="Virgil, Segoe UI Emoji" font-size="28px" fill="#1e1e1e" text-anchor="start" style="white-space: pre;" direction="ltr" dominant-baseline="alphabetic">Restart:</text></g><g transform="translate(336.62738778028233 490.7968088134503) rotate(0 34.327980041503906 17.5)"><text x="0" y="24.528" font-family="Virgil, Segoe UI Emoji" font-size="28px" fill="#1e1e1e" text-anchor="start" style="white-space: pre;" direction="ltr" dominant-baseline="alphabetic">Port:</text></g><g stroke-linecap="round" transform="translate(496.89429018223746 321.89132440606136) rotate(0 214.3840928883783 65.45550604258051)"><path d="M32 0 C145.21 0.81, 255.37 0.68, 396.77 0 M32 0 C170.51 1.97, 309.8 1.86, 396.77 0 M396.77 0 C417.79 -0.48, 427.86 9.53, 428.77 32 M396.77 0 C416.41 0.2, 428.58 9.1, 428.77 32 M428.77 32 C430.32 45.78, 430.24 60.96, 428.77 98.91 M428.77 32 C428.32 46.41, 427.64 60.36, 428.77 98.91 M428.77 98.91 C429.24 118.89, 419.76 129.14, 396.77 130.91 M428.77 98.91 C430.3 121.67, 418.05 129.53, 396.77 130.91 M396.77 130.91 C300.3 132.14, 204.77 133.73, 32 130.91 M396.77 130.91 C255.97 132.25, 116.43 131.55, 32 130.91 M32 130.91 C11.13 130.05, -1.58 118.27, 0 98.91 M32 130.91 C9.93 133.15, 1.16 121.78, 0 98.91 M0 98.91 C-1.05 82.89, 0.69 71.49, 0 32 M0 98.91 C1.22 74.2, 0.51 50.53, 0 32 M0 32 C-1.96 10.22, 9.27 0.02, 32 0 M0 32 C1.81 11.12, 11.28 2.08, 32 0" stroke="#1e1e1e" stroke-width="2" fill="none"></path></g><g stroke-linecap="round" transform="translate(507.7099808373596 335.3489335163222) rotate(0 202.7111266529164 16.828031457067482)"><path d="M8.41 0 C148.99 -1.25, 289.49 -2.03, 397.01 0 M8.41 0 C138.66 -2.15, 269.81 -1.8, 397.01 0 M397.01 0 C401.17 0.92, 403.93 3.91, 405.42 8.41 M397.01 0 C402.21 -0.66, 403.99 4.88, 405.42 8.41 M405.42 8.41 C404.78 11.46, 406.88 16.05, 405.42 25.24 M405.42 8.41 C405.44 12.62, 405.15 15.71, 405.42 25.24 M405.42 25.24 C404.25 31.63, 403.53 34.54, 397.01 33.66 M405.42 25.24 C405.44 30.03, 403.73 31.67, 397.01 33.66 M397.01 33.66 C251.76 32.83, 107.89 30.86, 8.41 33.66 M397.01 33.66 C243.38 35.23, 90.46 34.91, 8.41 33.66 M8.41 33.66 C3.07 35.13, 0.5 30.25, 0 25.24 M8.41 33.66 C1.76 34.88, 0.39 30.58, 0 25.24 M0 25.24 C0.9 21.53, 0.52 17.71, 0 8.41 M0 25.24 C0.03 21.33, 0.45 17.36, 0 8.41 M0 8.41 C-0.44 2.85, 3.1 0.27, 8.41 0 M0 8.41 C-0.69 2.64, 2.76 1.97, 8.41 0" stroke="#1e1e1e" stroke-width="2" fill="none"></path></g><g stroke-linecap="round" transform="translate(501.9193269173202 478.7565805975337) rotate(0 87.0651900319317 22.931402255470402)"><path d="M11.47 0 C49.53 0.38, 83.6 -2.05, 162.66 0 M11.47 0 C49.53 -0.63, 87.56 -1.52, 162.66 0 M162.66 0 C171.45 1.84, 173.94 3.87, 174.13 11.47 M162.66 0 C171.82 2.22, 174.35 5.44, 174.13 11.47 M174.13 11.47 C173.14 16.5, 172.46 22.09, 174.13 34.4 M174.13 11.47 C173.8 20.03, 174.52 26.17, 174.13 34.4 M174.13 34.4 C176.01 43.79, 169.18 44.94, 162.66 45.86 M174.13 34.4 C175.41 43.08, 171.11 45.91, 162.66 45.86 M162.66 45.86 C123.87 44.91, 88.07 48.43, 11.47 45.86 M162.66 45.86 C115.05 45.99, 68.12 46.25, 11.47 45.86 M11.47 45.86 C3.1 44.99, 1.47 40.4, 0 34.4 M11.47 45.86 C5.37 45.53, -0.07 43.75, 0 34.4 M0 34.4 C0.61 25.43, -1.5 16.44, 0 11.47 M0 34.4 C0.54 26.59, 1.18 18.69, 0 11.47 M0 11.47 C0.98 5.12, 2.93 -1.69, 11.47 0 M0 11.47 C-1.74 4.67, 4.36 -1.16, 11.47 0" stroke="#1e1e1e" stroke-width="2" fill="none"></path></g><g stroke-linecap="round"><g transform="translate(853.405761969676 343.39949130303285) rotate(0 11.95636554452085 10.837342594528764)"><path d="M0.41 -1.16 C4.04 2.4, 19.07 18.58, 22.88 22.55 M-0.83 0.84 C3.05 4.58, 21.22 17.55, 25.05 20.88" stroke="#1e1e1e" stroke-width="2" fill="none"></path></g></g><mask></mask><g stroke-linecap="round"><g transform="translate(903.3491361993329 342.19602088200554) rotate(0 -9.913336092253303 9.62081142067882)"><path d="M-1.03 0.87 C-4.51 4.44, -17.21 17.18, -20.47 20.24 M0.63 0.29 C-2.49 3.63, -14.97 15.26, -18.09 18.64" stroke="#1e1e1e" stroke-width="2" fill="none"></path></g></g><mask></mask><g stroke-linecap="round" transform="translate(920.8898522101936 479.11243083843146) rotate(0 87.0651900319317 22.931402255470402)"><path d="M11.47 0 C72.47 2.69, 131.81 1.33, 162.66 0 M11.47 0 C49.69 0.91, 87.84 -0.5, 162.66 0 M162.66 0 C168.95 -0.21, 175.03 4.42, 174.13 11.47 M162.66 0 C169.31 0.47, 172.93 2.82, 174.13 11.47 M174.13 11.47 C173.94 16.02, 173.71 21.34, 174.13 34.4 M174.13 11.47 C173.43 15.99, 173.99 21.78, 174.13 34.4 M174.13 34.4 C175.77 42.84, 170.34 47.67, 162.66 45.86 M174.13 34.4 C173.5 39.97, 171.62 46.79, 162.66 45.86 M162.66 45.86 C129.49 48.57, 95.21 47.27, 11.47 45.86 M162.66 45.86 C103.73 45.63, 43.37 45.93, 11.47 45.86 M11.47 45.86 C5.24 47.56, -1.54 41, 0 34.4 M11.47 45.86 C2.25 47.13, 1.63 43.52, 0 34.4 M0 34.4 C0.46 29.44, 1.01 25.57, 0 11.47 M0 34.4 C-0.98 28.13, 0.51 21.89, 0 11.47 M0 11.47 C0.2 2.52, 2.1 -1.55, 11.47 0 M0 11.47 C-0.59 2.52, 4.05 -1.38, 11.47 0" stroke="#1e1e1e" stroke-width="2" fill="none"></path></g><g transform="translate(757.1730656699656 487.4769017461376) rotate(0 34.061981201171875 17.5)"><text x="0" y="24.528" font-family="Virgil, Segoe UI Emoji" font-size="28px" fill="#1e1e1e" text-anchor="start" style="white-space: pre;" direction="ltr" dominant-baseline="alphabetic">From:</text></g><g transform="translate(118.03828980424623 41.54127135217368) rotate(0 99.0219497680664 17.5)"><text x="0" y="24.528" font-family="Virgil, Segoe UI Emoji" font-size="28px" fill="#1e1e1e" text-anchor="start" style="white-space: pre;" direction="ltr" dominant-baseline="alphabetic">&lt;Compose file&gt;</text></g><g stroke-linecap="round" transform="translate(1024.0977031700577 1408.9012136665706) rotate(0 155.28549678870786 49.57640856123635)"><path d="M24.79 0 C103.03 2.11, 185.33 2.39, 285.78 0 M24.79 0 C86.51 0.48, 147.72 0.88, 285.78 0 M285.78 0 C300.72 1.77, 309.95 8.63, 310.57 24.79 M285.78 0 C304.37 1.19, 311.7 9.3, 310.57 24.79 M310.57 24.79 C312.87 44.87, 310.73 64.22, 310.57 74.36 M310.57 24.79 C311.68 36.84, 310.32 48.92, 310.57 74.36 M310.57 74.36 C308.84 92.35, 301.79 100.74, 285.78 99.15 M310.57 74.36 C310.49 92.87, 301.1 98.65, 285.78 99.15 M285.78 99.15 C192.12 99.03, 97.64 99.52, 24.79 99.15 M285.78 99.15 C207.41 99.15, 128.55 98.13, 24.79 99.15 M24.79 99.15 C6.86 97.4, -0.68 89.52, 0 74.36 M24.79 99.15 C6.24 99.13, 1.51 90.81, 0 74.36 M0 74.36 C-1.53 59.75, 0.05 44.32, 0 24.79 M0 74.36 C0.33 63.21, 1.1 50.43, 0 24.79 M0 24.79 C0.71 9.34, 9.69 -0.73, 24.79 0 M0 24.79 C1.56 7.74, 7.89 -1.34, 24.79 0" stroke="#1e1e1e" stroke-width="2" fill="none"></path></g><g stroke-linecap="round" transform="translate(689.5283850134101 1409.844755971978) rotate(0 155.28549678870786 49.57640856123635)"><path d="M24.79 0 C118.99 0.72, 210.36 -0.52, 285.78 0 M24.79 0 C112.07 -0.51, 198.8 -0.92, 285.78 0 M285.78 0 C302.35 -1.25, 312.12 6.71, 310.57 24.79 M285.78 0 C303.95 0.97, 309.01 9.79, 310.57 24.79 M310.57 24.79 C311.43 43.15, 311.37 62.27, 310.57 74.36 M310.57 24.79 C310.29 38.26, 310.56 52.51, 310.57 74.36 M310.57 74.36 C310.34 92.75, 303.66 97.44, 285.78 99.15 M310.57 74.36 C310.8 89.04, 304.11 98.79, 285.78 99.15 M285.78 99.15 C228.24 101.23, 173.37 100.32, 24.79 99.15 M285.78 99.15 C228.7 97.26, 171.37 97.37, 24.79 99.15 M24.79 99.15 C9.64 99.67, 0.41 91.72, 0 74.36 M24.79 99.15 C10.4 97.25, 0.78 90.1, 0 74.36 M0 74.36 C-1.99 54.09, 1.34 38.49, 0 24.79 M0 74.36 C-1.09 63.45, 0.52 54.41, 0 24.79 M0 24.79 C1.67 8.75, 6.38 -1.79, 24.79 0 M0 24.79 C1.77 8.33, 8.19 -0.38, 24.79 0" stroke="#1e1e1e" stroke-width="2" fill="none"></path></g><g transform="translate(785.3437582098995 1438.828453977575) rotate(0 55.619972229003906 22.5)"><text x="0" y="31.536" font-family="Virgil, Segoe UI Emoji" font-size="36px" fill="#1e1e1e" text-anchor="start" style="white-space: pre;" direction="ltr" dominant-baseline="alphabetic">Cancel</text></g><g transform="translate(1150.327488622549 1437.8005665636056) rotate(0 32.2919921875 22.5)"><text x="0" y="31.536" font-family="Virgil, Segoe UI Emoji" font-size="36px" fill="#1e1e1e" text-anchor="start" style="white-space: pre;" direction="ltr" dominant-baseline="alphabetic">Add</text></g><g stroke-linecap="round"><g transform="translate(1317.5771018438163 1431.4060455681047) rotate(0 38.873942982764675 -591.3961420180885)"><path d="M0.43 -0.25 C16.97 -116.79, 103.77 -502.08, 100.07 -699.25 C96.38 -896.42, -1.36 -1102.69, -21.72 -1183.27 M-0.81 -1.43 C15.49 -117.79, 102.61 -501.14, 99.06 -697.94 C95.51 -894.73, -1.98 -1101.59, -22.1 -1182.2" stroke="#1e1e1e" stroke-width="2" fill="none"></path></g><g transform="translate(1317.5771018438163 1431.4060455681047) rotate(0 38.873942982764675 -591.3961420180885)"><path d="M-6.55 -1162.63 C-12.7 -1170.01, -18.72 -1175.81, -22.1 -1182.2 M-6.55 -1162.63 C-11.6 -1166.84, -15.54 -1172.06, -22.1 -1182.2" stroke="#1e1e1e" stroke-width="2" fill="none"></path></g><g transform="translate(1317.5771018438163 1431.4060455681047) rotate(0 38.873942982764675 -591.3961420180885)"><path d="M-22.77 -1157.21 C-22.94 -1166.65, -22.97 -1174.45, -22.1 -1182.2 M-22.77 -1157.21 C-23.62 -1162.84, -23.34 -1169.46, -22.1 -1182.2" stroke="#1e1e1e" stroke-width="2" fill="none"></path></g></g><mask></mask><g stroke-linecap="round" transform="translate(2204.4044271902776 1410.7829066070672) rotate(0 155.28549678870786 49.57640856123635)"><path d="M24.79 0 C127.08 0.85, 232.42 2.06, 285.78 0 M24.79 0 C86.82 2.16, 148.73 1.91, 285.78 0 M285.78 0 C302.86 0.13, 311.59 9, 310.57 24.79 M285.78 0 C303.83 1.17, 312.82 9.54, 310.57 24.79 M310.57 24.79 C312.23 37.09, 312.04 50.81, 310.57 74.36 M310.57 24.79 C309.55 41.93, 309.98 58.93, 310.57 74.36 M310.57 74.36 C312.01 92.85, 304.14 99.8, 285.78 99.15 M310.57 74.36 C311.81 90.66, 302.94 100.57, 285.78 99.15 M285.78 99.15 C187.12 100.44, 87.55 100.95, 24.79 99.15 M285.78 99.15 C221.55 99.72, 157.4 100, 24.79 99.15 M24.79 99.15 C7.24 100.01, 0.15 92.37, 0 74.36 M24.79 99.15 C10.53 97.69, 1.53 90.32, 0 74.36 M0 74.36 C0.92 63.37, -0.53 49.32, 0 24.79 M0 74.36 C0.78 62.25, -0.38 51.55, 0 24.79 M0 24.79 C1.19 6.9, 7.33 -0.02, 24.79 0 M0 24.79 C-1.05 6.72, 8.53 2.29, 24.79 0" stroke="#1e1e1e" stroke-width="2" fill="none"></path></g><g transform="translate(2300.8021007809593 1440.596921841423) rotate(0 59.00398254394531 22.5)"><text x="0" y="31.536" font-family="Virgil, Segoe UI Emoji" font-size="36px" fill="#1e1e1e" text-anchor="start" style="white-space: pre;" direction="ltr" dominant-baseline="alphabetic">Export</text></g></svg>